<svg width="1000" height="1000" viewBox="0 0 1000 1000" fill="none" xmlns="http://www.w3.org/2000/svg">
<g clip-path="url(#clip0_68_3531)">
<path d="M474.979 580.51L489.61 613.358L743.379 500.373L728.749 467.524L474.979 580.51ZM229.4 483.203L229.395 483.191C186.723 387.386 228.706 276.852 321.356 235.601L575.126 122.616C667.776 81.3654 778.033 124.118 820.704 219.923L820.71 219.935C863.381 315.739 821.399 426.274 728.749 467.524L743.379 500.373C854.731 450.795 904.061 318.691 853.56 205.309L853.555 205.297C803.054 91.9146 671.847 40.1903 560.495 89.7673L306.725 202.753C195.373 252.33 146.044 384.435 196.544 497.817L196.55 497.829C247.05 611.211 378.258 662.935 489.61 613.358L474.979 580.51C382.329 621.76 272.072 579.007 229.4 483.203Z" fill="#FAFAFA"/>
<path d="M423.422 877.384L438.053 910.233L691.823 797.247L677.192 764.399L423.422 877.384ZM177.843 780.077L177.838 780.065C135.166 684.261 177.149 573.727 269.799 532.476L523.569 419.49C616.219 378.24 726.476 420.993 769.148 516.797L769.153 516.809C811.824 612.614 769.842 723.148 677.192 764.399L691.823 797.247C803.174 747.67 852.504 615.565 802.003 502.183L801.998 502.171C751.497 388.789 620.29 337.065 508.938 386.642L255.168 499.627C143.816 549.205 94.4868 681.309 144.987 794.691L144.993 794.703C195.493 908.086 326.701 959.81 438.053 910.233L423.422 877.384C330.772 918.635 220.515 875.882 177.843 780.077Z" fill="#FAFAFA"/>
<path d="M268.092 539.433L243.116 565.304L442.939 758.27L467.914 732.4L268.092 539.433ZM266.318 275.285L266.327 275.275C339.171 199.822 457.383 197.341 530.337 267.792L730.159 460.758C803.113 531.209 804.777 649.453 731.934 724.906L731.924 724.916C659.081 800.369 540.869 802.851 467.914 732.4L442.939 758.27C530.619 842.942 671.583 839.192 757.791 749.895L757.801 749.886C844.009 660.589 842.815 519.559 755.135 434.887L555.313 241.921C467.633 157.249 326.668 160.999 240.46 250.296L240.451 250.305C154.243 339.602 155.436 480.632 243.116 565.304L268.092 539.433C195.138 468.982 193.475 350.738 266.318 275.285Z" fill="#FAFAFA"/>
</g>
<defs>
<clipPath id="clip0_68_3531">
<rect width="1000" height="1000" fill="white"/>
</clipPath>
</defs>
</svg>
